# xmcd
#
# Track frame offsets: 
#        150
#        15944
#        27075
#        43307
#        52086
#        65175
#        80676
#        99650
#        114509
#        128086
#        147917
#        160751
#        175535
#
# Disc length: 2850 seconds
#
# Revision: 0
# Processed by: cddbd v1.5.1PL2 Copyright (c) Steve Scherf et al.
# Submitted via: ExactAudioCopy v0.95b2
#
DISCID=ac0b200d
DTITLE=Hank Williams III - Lovesick Broke and Driftin'
DYEAR=2002
DGENRE=Country
TTITLE0=7 Months, 39 Days
TTITLE1=Broke, Lovesick and Driftin'
TTITLE2=Cecil Brown
TTITLE3=Lovin' and Huggin'
TTITLE4=One Horse Town
TTITLE5=Mississippi Mud
TTITLE6=Whiskey, Weed, and Women
TTITLE7=Trashville
TTITLE8=Walkin' With Sorrow
TTITLE9=5 Shots Of Whiskey
TTITLE10=Nighttime Ramblin' Man
TTITLE11=Callin' Your Name
TTITLE12=Atlantic City
EXTD=
EXTT0=
EXTT1=
EXTT2=
EXTT3=
EXTT4=
EXTT5=
EXTT6=
EXTT7=
EXTT8=
EXTT9=
EXTT10=
EXTT11=
EXTT12=
PLAYORDER=
